<svg width="22" height="20" viewBox="0 0 22 20" fill="black" xmlns="http://www.w3.org/2000/svg">
<path fill-rule="evenodd" clip-rule="evenodd" d="M20.6681 10.3316C20.4975 10.3316 20.3269 10.2665 20.1967 10.1363L19.6681 9.60768V18.0832C19.6681 19.1401 18.8082 20 17.7513 20H13.3371L13.3343 20H8.00058L7.99778 20H3.58361C2.5267 20 1.66681 19.1401 1.66681 18.0832V9.60769L1.13815 10.1363C0.877802 10.3967 0.455647 10.3967 0.195295 10.1363C-0.0650983 9.87599 -0.0650983 9.45384 0.195295 9.19349L8.48705 0.901689C9.6893 -0.300563 11.6456 -0.300563 12.8478 0.901689L21.1395 9.19345C21.3999 9.45384 21.3999 9.87595 21.1395 10.1363C21.0094 10.2665 20.8388 10.3316 20.6681 10.3316ZM8.66729 18.6666H12.6676V13.4162C12.6676 13.0026 12.3311 12.6661 11.9175 12.6661H9.41734C9.00377 12.6661 8.66729 13.0026 8.66729 13.4162V18.6666Z"/>
</svg>
