<svg width="18" height="20" viewBox="0 0 18 20" fill="black" xmlns="http://www.w3.org/2000/svg">
<path d="M8.96734 10.7143C11.9213 10.7143 14.3245 8.31107 14.3245 5.35714C14.3245 2.40321 11.9213 0 8.96734 0C6.01341 0 3.6102 2.40321 3.6102 5.35714C3.6102 8.31107 6.01341 10.7143 8.96734 10.7143Z" />
<path d="M17.5718 14.0532C16.5548 12.904 15.0922 12.2449 13.5591 12.2449H4.37546C2.84235 12.2449 1.37974 12.904 0.362755 14.0532L0 14.4632L0.270714 14.9389C2.04709 18.0607 5.37944 20 8.96729 20C12.5552 20 15.8875 18.0607 17.6639 14.9389L17.9346 14.4631L17.5718 14.0532Z" />
</svg>
